<svg width="295" height="60" viewBox="0 0 295 60" fill="none" xmlns="http://www.w3.org/2000/svg">
<path fill-rule="evenodd" clip-rule="evenodd" d="M30.5837 4.38341C26.7338 4.8359 21.2384 6.78294 19.6524 8.25759C19.4837 8.41456 18.9774 8.78967 18.5286 9.09256C16.8395 10.2289 14.4178 12.6955 13.2593 14.4583C12.9395 14.9455 12.5983 15.423 12.5025 15.5196C12.1642 15.8578 10.5466 19.1653 10.5857 19.4394C10.6159 19.6509 10.8347 19.3952 11.5606 18.3001C13.8673 14.8224 16.8999 12.187 20.7579 10.3078C21.8773 9.76246 24.778 8.91348 26.4074 8.65481C26.5769 8.62754 27.0183 8.55311 27.3905 8.48826C28.9307 8.21927 32.5322 8.34603 33.9 8.71745C34.1366 8.78157 34.6908 8.91864 35.1315 9.02181C37.8486 9.65781 41.4236 11.3786 43.3073 12.9579C45.4533 14.7568 46.6752 16.0531 47.5919 17.5027C47.8484 17.908 48.1866 18.393 48.3436 18.5809C48.6635 18.9626 49.7497 21.1698 49.99 21.9244C50.0762 22.1949 50.2428 22.6091 50.3607 22.8456C50.9701 24.0653 51.5251 27.0117 51.6621 29.7546C51.7093 30.6832 51.7749 31.4437 51.8088 31.4437C51.8427 31.4437 52.2348 31.2705 52.6806 31.059C53.1265 30.8475 53.7293 30.5719 54.0204 30.4459C54.3122 30.3199 54.5164 30.1621 54.4751 30.0951C54.4294 30.0214 54.4839 30.0052 54.61 30.0531C54.7264 30.098 54.7898 30.0833 54.7507 30.0214C54.7124 29.9587 54.8252 29.8998 55.0006 29.8887C55.1759 29.8784 55.3838 29.7826 55.4612 29.6758C55.5393 29.5696 55.6284 29.5077 55.6601 29.5387C55.6911 29.5696 56.1554 29.3029 56.6919 28.9447L57.6669 28.294L57.6307 27.3816C57.543 25.1634 57.1082 23.206 55.9829 19.959C55.6189 18.9096 55.4309 18.5028 54.4987 16.7569C54.1059 16.02 53.0734 14.367 52.9319 14.2476C52.8921 14.2137 52.4359 13.6521 51.9193 12.9992C51.402 12.3462 50.6098 11.4899 50.1587 11.0956C49.7085 10.7013 49.1351 10.1855 48.886 9.94891C44.7362 6.01429 36.9237 3.63908 30.5837 4.38341ZM57.0648 33.5507C57.1127 33.6288 57.0987 33.659 57.0331 33.6185C56.8761 33.5219 56.0514 33.8093 55.753 34.0643C55.6189 34.1793 55.5172 34.2073 55.5172 34.1292C55.5172 34.0341 55.4707 34.0312 55.3639 34.1203C55.2791 34.1904 55.1686 34.2515 55.1177 34.2567C55.0669 34.2618 54.8252 34.3495 54.5805 34.4512C54.3365 34.5537 54.0875 34.6369 54.0285 34.6369C53.9695 34.6369 53.9209 34.6981 53.9209 34.7725C53.9209 34.8477 53.8443 34.8794 53.7514 34.844C53.6585 34.8079 53.534 34.8241 53.475 34.8794C53.4161 34.9354 52.9909 35.13 52.5295 35.312C51.7771 35.6097 51.4794 35.7033 51.1875 35.7328C51.1374 35.738 51.0954 35.8249 51.0954 35.9266C51.0954 36.0276 51.0475 36.1109 50.9886 36.1109C50.9289 36.1109 50.8485 36.2715 50.8095 36.4683C50.6584 37.2237 48.7534 41.369 48.3694 41.7781C48.281 41.8716 47.9494 42.3345 47.631 42.8061C46.936 43.8378 45.5144 45.454 44.5866 46.2669C44.2152 46.5919 43.773 46.9847 43.6035 47.1394C43.294 47.4231 42.4222 48.0179 40.8399 49.026C39.3255 49.9907 35.906 51.2649 33.7158 51.6805C32.3148 51.9466 26.9793 51.9849 25.9254 51.7373C25.2356 51.5752 24.8141 51.6967 25.2585 51.9296C26.8643 52.772 32.9943 53.3321 36.2369 52.9326C38.1943 52.6916 42.0065 51.7144 42.0065 51.4536C42.0065 51.3917 42.0832 51.3415 42.1775 51.3415C42.8629 51.3415 45.765 49.7586 47.7791 48.2861C51.6408 45.4636 54.8428 41.0794 56.2541 36.6813C56.5393 35.7932 56.8031 34.9841 56.8407 34.8824C56.8783 34.7814 56.9174 34.6708 56.927 34.6369C57.2814 33.4637 57.2895 33.4084 57.1068 33.4084C57.0353 33.4084 57.0161 33.4726 57.0648 33.5507Z" fill="#930423"/>
<path fill-rule="evenodd" clip-rule="evenodd" d="M49.2139 10.1552C49.4188 10.3601 49.6937 10.4153 50.861 10.4854C51.6319 10.5325 52.2811 10.6239 52.3032 10.6895C52.3261 10.7551 52.4919 10.8089 52.6717 10.8089C53.0343 10.8096 55.0801 11.1921 56.3558 11.4987C58.2188 11.946 60.1599 12.638 60.5277 12.9851C60.6154 13.0684 60.919 13.2386 61.2035 13.3654C62.2197 13.8164 63.9501 15.423 64.4394 16.3692C65.5346 18.4872 65.1956 20.6539 63.3436 23.3725C63.191 23.5973 61.0288 25.7934 60.9603 25.7934C60.9396 25.7934 60.5771 26.0742 60.1548 26.4169C59.7318 26.7603 59.1864 27.1443 58.9425 27.271C58.4738 27.5142 57.6057 28.2954 57.6057 28.4745C57.6057 28.7987 52.4256 31.4621 51.71 31.5056C51.1794 31.538 50.1469 31.8829 49.9288 32.101C49.7814 32.2484 44.9057 33.9014 44.0331 34.0997C43.8305 34.1453 43.6359 34.2271 43.6005 34.2802C43.4465 34.5123 37.2944 35.9185 35.2818 36.1808C34.9273 36.2272 34.6369 36.3046 34.6369 36.3525C34.6369 36.4012 33.9044 36.5368 33.0097 36.6547C32.1143 36.7726 31.2985 36.8912 31.1953 36.9193C31.0664 36.9539 30.9455 36.7918 30.8011 36.3864C30.5918 35.8035 29.7539 34.6745 29.3736 34.4637C29.2623 34.4018 29.1274 34.2787 29.0744 34.1896C28.221 32.7621 23.0829 32.765 22.2693 34.194C22.2148 34.2891 21.8751 34.6841 21.5139 35.0702C20.9067 35.7217 20.3893 36.6289 20.3893 37.0423C20.3893 37.4241 14.0228 36.7682 13.7567 36.3592C13.7228 36.3076 13.2807 36.172 12.7736 36.0585C11.0801 35.679 8.24504 34.6192 7.98342 34.2684C7.94952 34.2227 7.59578 33.9692 7.19709 33.7054C6.7984 33.4408 6.3378 33.1342 6.17346 33.0237C5.5043 32.5719 4.30306 30.6389 4.30012 30.0073C4.29938 29.8592 4.24337 29.7044 4.17631 29.6624C4.02376 29.5688 4.01196 28.0441 4.1623 27.9512C4.22273 27.9144 4.29938 27.7036 4.33402 27.4833C4.36792 27.2629 4.43572 26.9585 4.48435 26.8067C4.67302 26.2179 4.08787 26.4773 3.81004 27.1059C1.71119 31.8505 3.51747 35.6583 8.93705 37.9119C9.66221 38.2141 10.422 38.5332 10.6247 38.6224C12.0514 39.2473 15.35 39.9069 18.3627 40.17C20.508 40.3572 20.4837 40.3505 20.6775 40.8111C20.7689 41.0293 21.1705 41.5591 21.5685 41.988C21.9672 42.4169 22.3386 42.8481 22.3946 42.9453C22.9768 43.966 26.5334 44.2873 28.1524 43.4656C29.0928 42.9888 30.3633 41.694 30.7089 40.8605L30.9735 40.2216L33.1431 40.0078C36.7785 39.6497 41.7677 38.8199 41.8635 38.5575C41.8856 38.4956 42.0161 38.4447 42.1524 38.4447C42.8216 38.4447 49.8676 36.5309 49.8676 36.3496C49.8676 36.2965 50.0467 36.2155 50.2663 36.169C50.4859 36.1226 50.777 35.9818 50.9141 35.8573C51.0504 35.732 51.7137 35.4291 52.388 35.183C53.0616 34.9376 53.9172 34.6258 54.2893 34.491C54.6608 34.3554 54.9924 34.2043 55.0263 34.1549C55.1582 33.9618 57.0168 33.2772 57.2283 33.3443C57.4656 33.4194 59.465 32.4791 60.1297 31.9787C60.3361 31.8239 60.723 31.6058 60.9898 31.4945C61.2565 31.3832 61.849 31.0501 62.3074 30.7539C62.7651 30.4576 63.1918 30.2152 63.2544 30.2152C63.3171 30.2152 63.4674 30.1135 63.5883 29.9889C63.9037 29.6647 65.1889 28.7412 65.3245 28.7412C65.3879 28.7412 65.7358 28.4501 66.0976 28.0935C66.4594 27.7375 67.0416 27.2113 67.391 26.9239C67.7403 26.6365 68.3431 25.9607 68.7307 25.422C69.1191 24.8833 69.4773 24.4426 69.5274 24.4426C69.5775 24.4426 69.7234 24.2628 69.8524 24.0431C72.344 19.8012 71.1266 15.6094 66.7572 13.3882C66.2376 13.1244 65.7483 12.8598 65.6702 12.7994C65.1315 12.3874 61.9574 11.3822 59.9389 10.9835C59.297 10.8568 58.7442 10.7182 58.7111 10.6762C58.6477 10.5966 57.4597 10.408 55.6402 10.1891C55.0661 10.1198 53.3298 10.0284 51.7822 9.98644L48.9678 9.90906L49.2139 10.1552ZM195.269 13.8842C193.22 14.9668 193.676 18.0694 195.982 18.74C198.606 19.5028 200.727 17.2705 199.595 14.938C198.994 13.6992 196.685 13.1362 195.269 13.8842ZM78.4858 27.7589V39.5502H87.2681H96.0497V38.2605V36.9708H90.2771H84.5046V32.4872V28.0043H89.2948H94.085V26.7758V25.548H89.2948H84.5046V21.8632V18.1784H90.2771H96.0497V17.073V15.9676H87.2681H78.4858V27.7589ZM256.584 27.7589V39.5502H259.654H262.725V27.7589V15.9676H259.654H256.584V27.7589ZM266.778 17.073V18.1784H270.831H274.885V28.8643V39.5502H277.894H280.903V28.8643V18.1784H284.649H288.395V17.073V15.9676H277.587H266.778V17.073ZM183.447 16.9175C183.333 17.3722 183.201 17.7731 183.156 17.8078C183.11 17.8424 182.908 18.2308 182.707 18.6693C182.228 19.7172 181.76 20.41 181.265 20.8042C181.043 20.9804 180.708 21.2493 180.52 21.4019C180.114 21.7306 179.156 22.0961 178.681 22.1035L178.343 22.1086V23.1529V24.1964H179.817H181.291V30.3773C181.291 37.1875 181.295 37.2243 182.056 38.3784C183.605 40.7256 188.851 40.4021 190.872 37.8338C191.243 37.3614 191.616 36.948 191.701 36.9156C191.917 36.8308 191.892 36.4793 191.67 36.4793C191.569 36.4793 191.486 36.4292 191.486 36.368C191.486 36.3061 191.123 35.9708 190.679 35.6222C189.792 34.925 189.917 34.9214 189.018 35.6775C187.913 36.6083 187.88 36.6267 187.508 36.5331C186.839 36.3651 186.818 36.1676 186.818 29.9204V24.1964H188.968H191.117V22.9687V21.7402H188.968H186.818V18.9154V16.0899H185.237H183.655L183.447 16.9175ZM199.009 21.2125C198.857 21.242 198.733 21.3127 198.733 21.3702C198.733 21.4269 198.47 21.5331 198.149 21.6046C197.829 21.6768 196.847 21.9288 195.969 22.1646C195.091 22.4012 194.331 22.5958 194.28 22.5972C194.229 22.5987 194.188 26.4139 194.188 31.0752V39.5502H196.952H199.715V30.3382C199.715 20.1741 199.784 21.0636 199.009 21.2125ZM97.6467 21.3606C97.6467 21.4225 97.9231 22.0851 98.2606 22.8338C98.5989 23.5825 98.8752 24.2502 98.8752 24.3188C98.8752 24.3866 98.9209 24.4426 98.9769 24.4426C99.0329 24.4426 99.2069 24.7322 99.3638 25.0874C100.208 26.9998 100.589 27.8724 100.784 28.3418C100.903 28.6292 101.039 28.8643 101.086 28.8643C101.133 28.8643 101.269 29.0987 101.388 29.3861C101.507 29.6735 101.661 30.0464 101.731 30.2152C102.206 31.3597 103.066 33.2205 103.147 33.2779C103.201 33.3163 103.676 34.3421 104.203 35.5574C104.73 36.7733 105.209 37.797 105.266 37.8331C105.324 37.8692 105.556 38.3394 105.782 38.8773L106.192 39.8568L107.548 39.8914L108.904 39.926L109.057 39.5848C109.141 39.3969 109.301 39.1051 109.412 38.9356C109.613 38.6319 109.82 38.1839 110.978 35.5581C111.305 34.8152 111.612 34.191 111.658 34.1704C111.706 34.1505 112.177 33.1556 112.707 31.9595C113.237 30.7642 113.727 29.7251 113.796 29.6521C113.865 29.5792 114.079 29.165 114.272 28.7309C114.466 28.2976 114.837 27.4729 115.097 26.8989C115.357 26.3248 115.603 25.7308 115.644 25.5782C115.685 25.4264 115.762 25.3019 115.814 25.3019C115.902 25.3019 116.076 24.9467 117.162 22.5552C117.781 21.1919 117.842 21.2486 115.758 21.2486C113.505 21.2486 113.855 20.9059 112.126 24.8111C111.901 25.3173 111.676 25.7617 111.625 25.7986C111.528 25.8686 110.188 28.7648 109.789 29.7678C109.658 30.0958 109.484 30.4318 109.403 30.5136C109.321 30.5962 109.12 30.9492 108.957 31.2992C108.793 31.6485 108.621 31.9345 108.574 31.9345C108.482 31.9345 107.596 30.0552 107.596 29.8599C107.596 29.7951 107.516 29.6617 107.418 29.5644C107.321 29.4664 106.819 28.4273 106.304 27.2541C105.788 26.0808 105.327 25.0926 105.279 25.0579C105.232 25.0233 105.01 24.5804 104.785 24.0741C104.559 23.5671 104.18 22.724 103.94 22.2008L103.503 21.2486H100.575C98.8973 21.2486 97.6467 21.2965 97.6467 21.3606ZM126.88 21.3717C126.88 21.4395 126.699 21.4948 126.479 21.4948C125.386 21.4948 122.436 22.6695 121.675 23.4064C119.121 25.8855 118.349 27.6166 118.367 30.829C118.385 34.0097 119.89 36.9281 122.107 38.0807C122.353 38.2089 122.632 38.391 122.727 38.486C123.962 39.7212 128.616 40.279 131.178 39.4993C132.043 39.2362 133.389 38.6732 133.389 38.5745C133.389 38.5258 133.707 38.2723 134.095 38.0122C134.838 37.5154 135.845 36.6186 135.845 36.455C135.845 36.354 136.582 35.3223 136.881 35.0039C138.275 33.5197 138.343 27.6004 136.982 26.0926C136.863 25.9622 136.684 25.6895 136.582 25.4868C135.715 23.7557 132.522 21.8146 130.104 21.5478C129.681 21.5006 129.336 21.4144 129.336 21.3555C129.336 21.2972 128.783 21.2486 128.107 21.2486C127.37 21.2486 126.88 21.298 126.88 21.3717ZM148.62 21.3577C148.62 21.4174 148.309 21.5051 147.929 21.5522C146.664 21.7107 144.741 22.5869 143.861 23.4079C143.54 23.7064 143.24 23.951 143.195 23.951C143.046 23.951 141.922 25.4751 141.566 26.1619C141.373 26.5333 141.144 26.9202 141.059 27.0219C140.092 28.1708 140.064 33.5646 141.019 34.7157C141.184 34.9147 141.987 36.2442 141.987 36.3186C141.987 36.438 143.014 37.5847 143.121 37.5847C143.226 37.5847 144.045 38.2067 144.613 38.7152C145.011 39.0726 146.907 39.685 148.054 39.8273C152.406 40.366 156.038 38.0549 157.463 33.8395C157.933 32.4474 157.934 32.4555 157.279 32.2904C156.975 32.2138 156.726 32.1084 156.726 32.0568C156.726 31.8659 155.086 31.6353 155.025 31.8173C153.41 36.6628 148.861 37.609 146.853 33.5167C144.778 29.2881 146.217 23.828 149.406 23.828C150.575 23.828 150.91 24.1854 151.022 25.5517C151.12 26.7677 151.248 27.061 151.855 27.4737C152.136 27.6638 152.434 27.8834 152.516 27.9615C152.874 28.2983 155.252 28.2379 155.252 27.8915C155.252 27.8392 155.479 27.694 155.756 27.5687C156.989 27.0131 157.289 25.6092 156.497 24.1117C155.813 22.8191 153.864 21.7512 151.798 21.5345C151.4 21.4933 151.076 21.4122 151.076 21.354C151.076 21.2965 150.523 21.2486 149.848 21.2486C149.172 21.2486 148.62 21.298 148.62 21.3577ZM166.041 21.3444C166.018 21.3967 165.512 21.5323 164.915 21.6458C162.418 22.1212 160.489 23.4757 160.209 24.9518C160.166 25.1781 160.08 25.4286 160.018 25.5075C159.949 25.5952 159.953 25.7389 160.028 25.876C160.095 25.9998 160.185 26.2629 160.227 26.4604C160.295 26.7787 160.76 27.3123 161.466 27.8812C161.821 28.1672 163.825 28.1428 163.988 27.851C164.054 27.7324 164.178 27.6358 164.265 27.6358C164.756 27.6358 165.158 26.7809 165.312 25.405C165.428 24.3659 165.82 23.7056 166.319 23.7056C166.436 23.7056 166.553 23.6422 166.579 23.5649C166.607 23.4808 166.915 23.4248 167.35 23.4248C167.785 23.4248 168.095 23.4808 168.123 23.5649C168.148 23.6422 168.266 23.7056 168.383 23.7056C169.055 23.7056 169.517 24.8398 169.595 26.6837C169.653 28.0456 169.643 28.1274 169.421 28.1274C168.928 28.1274 164.157 29.7317 163.973 29.9594C163.939 30.0014 163.441 30.3036 162.867 30.6308C161.519 31.3994 160.165 32.8365 160.165 33.499C160.165 33.5735 160.096 33.6567 160.012 33.6855C159.808 33.7533 159.792 36.6915 159.995 36.8212C160.07 36.8699 160.23 37.102 160.351 37.3378C161.762 40.0904 167.058 40.8524 169.287 38.6238L169.623 38.2885V38.9194V39.5502H172.448H175.273V32.4452C175.273 25.2621 175.222 24.3578 174.806 24.0852C174.745 24.0454 174.55 23.7815 174.373 23.4993C173.801 22.584 172.111 21.7239 170.516 21.5368C170.16 21.4948 169.868 21.4129 169.868 21.3547C169.868 21.2228 166.097 21.2125 166.041 21.3444ZM211.752 21.3547C211.752 21.4129 211.453 21.4955 211.089 21.539C210.47 21.6112 209.576 21.8618 208.559 22.2479C207.169 22.7748 205.354 24.3453 204.672 25.6092C204.49 25.9467 204.297 26.2525 204.244 26.2887C202.936 27.1752 202.939 34.079 204.248 35.1284C204.29 35.1616 204.543 35.5212 204.809 35.9266C205.331 36.7195 206.086 37.5847 206.257 37.5847C206.351 37.5847 207.24 38.2075 207.679 38.5811C209.547 40.1678 216.479 40.2267 218.037 38.6695C218.165 38.5413 218.494 38.3195 218.767 38.1772C219.214 37.9444 220.167 37.0644 220.948 36.1631C223.044 33.7444 223.501 29.4893 221.995 26.4161C220.698 23.7719 217.283 21.4948 214.615 21.4948C214.392 21.4948 214.209 21.4395 214.209 21.3717C214.209 21.298 213.717 21.2486 212.98 21.2486C212.305 21.2486 211.752 21.2965 211.752 21.3547ZM235.765 21.3717C235.723 21.4395 235.564 21.4948 235.412 21.4948C234.878 21.4948 233.211 22.001 232.465 22.3894C232.051 22.6053 231.67 22.8014 231.619 22.8242C231.569 22.8471 231.527 22.6127 231.527 22.3032V21.7402H228.702H225.877V30.6448V39.5502H228.702H231.527V33.0709V26.5915L232.141 26.1737C232.479 25.943 232.755 25.7124 232.755 25.6608C232.755 25.2068 235.036 24.6032 235.654 24.8929C236.73 25.3977 236.808 25.9791 236.808 33.4253V39.5502H239.639H242.47L242.434 32.5793L242.397 25.6092L241.82 24.5037C240.976 22.8876 239.217 21.4948 238.021 21.4948C237.827 21.4948 237.668 21.4395 237.668 21.3717C237.668 21.3009 237.282 21.2486 236.755 21.2486C236.252 21.2486 235.806 21.3039 235.765 21.3717ZM129.04 24.1338C130.911 25.0653 131.741 27.0256 131.875 30.829C131.971 33.5528 131.815 34.3274 130.768 36.3194C130.522 36.7866 129.365 37.4617 128.811 37.4617C126.09 37.4617 124.287 33.9699 124.451 29.0183C124.585 24.954 126.531 22.8832 129.04 24.1338ZM213.779 24.0616C215.44 24.8324 216.302 26.3904 216.664 29.2814C217.277 34.1704 215.8 37.7115 213.273 37.4145C212.46 37.3194 211.383 36.7534 211.383 36.4218C211.383 36.3452 210.742 35.4873 210.441 35.1623C210.018 34.7047 209.501 32.7547 209.293 30.8298C208.783 26.1147 210.999 22.7719 213.779 24.0616ZM169.349 35.5286C169.196 35.6509 168.852 35.8654 168.586 36.0062C168.321 36.1469 168.028 36.3363 167.938 36.427C166.753 37.612 164.88 35.3481 165.615 33.6199C165.944 32.8454 167.263 31.7163 168.563 31.0966L169.561 30.6205L169.595 32.964C169.627 35.2729 169.625 35.3105 169.349 35.5286ZM141.496 43.7258C141.496 43.7936 141.689 43.8489 141.925 43.8489C142.162 43.8489 142.356 43.7936 142.356 43.7258C142.356 43.6587 142.162 43.6034 141.925 43.6034C141.689 43.6034 141.496 43.6587 141.496 43.7258ZM246.512 43.7258C246.512 43.7936 246.733 43.8489 247.003 43.8489C247.273 43.8489 247.494 43.7936 247.494 43.7258C247.494 43.6587 247.273 43.6034 247.003 43.6034C246.733 43.6034 246.512 43.6587 246.512 43.7258Z" fill="#040404"/>
<path fill-rule="evenodd" clip-rule="evenodd" d="M54.2584 30.3457C53.87 30.5461 53.5524 30.7377 53.5524 30.7716C53.5524 30.8055 53.884 30.6655 54.2893 30.4606C54.6947 30.2565 55.0263 30.0619 55.0263 30.0295C55.0263 29.947 55.0491 29.9381 54.2584 30.3457ZM55.7632 33.7813C55.324 33.9766 55.027 34.1388 55.1029 34.141C55.2798 34.1469 56.6225 33.5551 56.6225 33.4718C56.6225 33.393 56.6992 33.365 55.7632 33.7813Z" fill="#0C0C0C"/>
<path fill-rule="evenodd" clip-rule="evenodd" d="M57.3875 28.3551C57.4059 28.4229 57.3108 28.5681 57.1752 28.6779C56.9343 28.8747 56.9343 28.8754 57.1996 28.7472C57.5371 28.5843 57.6476 28.4133 57.4818 28.3109C57.4111 28.2674 57.3691 28.2873 57.3875 28.3551ZM56.4081 29.1237C55.9895 29.392 55.8539 29.5718 56.2238 29.3684C56.5054 29.2137 56.9468 28.8724 56.8687 28.8702C56.8348 28.8688 56.6277 28.983 56.4081 29.1237ZM52.6312 31.0907C52.0902 31.3582 51.7866 31.5402 51.9554 31.4945C52.3275 31.3936 53.6747 30.7266 53.6747 30.6433C53.6747 30.5674 53.772 30.5262 52.6312 31.0907ZM56.7766 33.4128C56.4258 33.5536 56.428 33.5926 56.7869 33.5926C56.9438 33.5926 57.0728 33.5241 57.0728 33.4394C57.0728 33.3546 57.0684 33.289 57.0632 33.2934C57.0573 33.2979 56.9284 33.3517 56.7766 33.4128ZM52.4469 35.1963C51.8721 35.4225 51.4653 35.6097 51.5412 35.6134C51.738 35.6222 53.3438 35.0106 53.4846 34.8735C53.6356 34.7261 53.6622 34.718 52.4469 35.1963Z" fill="#740404"/>
</svg>
