<svg width="295" height="60" viewBox="0 0 295 60" fill="none" xmlns="http://www.w3.org/2000/svg">
<path fill-rule="evenodd" clip-rule="evenodd" d="M29.9698 4.06058C29.1872 4.19175 28.9948 4.23523 28.7413 4.33325C28.6396 4.37305 28.0051 4.52707 27.3308 4.67593C23.3394 5.5566 18.8256 7.9974 16.2131 10.6888C14.7126 12.2349 13.8865 13.1863 13.3264 14.0124C12.9889 14.5114 12.6138 15.0302 12.4922 15.165C12.3713 15.2999 11.8613 16.2336 11.3595 17.2403C10.019 19.925 10.3896 20.0304 11.9336 17.4039C12.0456 17.213 12.4811 16.6751 12.9012 16.2078C13.3213 15.7413 13.8194 15.1496 14.0081 14.8931C14.1968 14.6366 14.5903 14.2534 14.8829 14.0419C15.1754 13.8304 15.6913 13.3757 16.0288 13.0323C16.3664 12.6889 16.6833 12.4073 16.7326 12.4066C16.782 12.4059 17.2242 12.1391 17.715 11.8134C19.9723 10.3173 22.0844 9.36593 24.1958 8.8928C24.6357 8.79405 25.1059 8.66361 25.2408 8.60244C26.5872 7.99445 34.1462 8.00182 34.5235 8.61276C34.5648 8.67908 34.648 8.72035 34.7099 8.70488C34.822 8.6754 35.2523 8.78963 36.7248 9.23843C37.8022 9.56712 40.0426 10.5473 40.3565 10.828C40.4958 10.9526 40.6447 11.0543 40.6867 11.0543C40.9741 11.0543 43.2741 12.655 43.6426 13.1111C43.7657 13.263 43.9374 13.3882 44.0236 13.3882C44.3958 13.3882 47.7791 17.2219 47.7791 17.6442C47.7791 17.7053 47.9553 17.947 48.1697 18.1814C48.5949 18.6472 49.6783 20.8403 50.1087 22.1079C50.2575 22.5464 50.4211 22.9333 50.472 22.9672C50.5869 23.0446 51.0711 24.9164 51.2974 26.1619C51.3895 26.6689 51.5008 27.9814 51.545 29.0788C51.6143 30.7907 51.6533 31.0745 51.8213 31.0737C52.3247 31.0708 57.0648 28.5342 57.5328 28.0168C57.8216 27.6977 57.179 22.4771 56.8503 22.4771C56.7928 22.4771 56.7457 22.3769 56.7457 22.2538C56.7457 21.6937 55.2349 17.5719 54.8465 17.073C54.7677 16.9713 54.4081 16.3633 54.0477 15.7214C53.6873 15.0795 53.0778 14.1679 52.6946 13.6948C52.3107 13.2224 51.937 12.7272 51.8648 12.5953C51.629 12.1649 49.5736 10.1869 49.2869 10.1154C49.1337 10.0764 49.0076 9.97023 49.0076 9.87885C49.0076 9.78746 48.5876 9.39319 48.0747 9.00187C45.2978 6.88533 42.2033 5.42026 38.9357 4.67446C38.2938 4.52781 37.4927 4.31998 37.1552 4.21239C36.4307 3.98246 31.1048 3.8697 29.9698 4.06058ZM53.8605 34.5131L50.9134 35.7143L50.7321 36.3113C50.6326 36.6399 50.5029 36.9428 50.4447 36.9841C50.3857 37.0254 50.346 37.0806 50.3563 37.1072C50.3806 37.1713 50.2472 37.5611 50.0386 38.0335C49.9443 38.2458 49.8677 38.4551 49.8677 38.4971C49.8677 38.6695 48.5058 41.3123 48.3517 41.4397C48.1741 41.5857 47.4107 42.7095 47.4107 42.8245C47.4107 43.0552 44.2675 46.4282 44.0523 46.4282C43.9786 46.4282 43.6684 46.6707 43.3618 46.9677C41.7007 48.5764 37.5627 50.5434 34.637 51.1152C34.1978 51.2015 33.8109 51.3069 33.777 51.3496C33.4144 51.8102 25.9947 51.7999 25.5024 51.3378C25.3779 51.2214 25.0566 51.3186 25.0566 51.4727C25.0566 51.7476 27.0309 52.2907 29.2837 52.6363C30.9927 52.8987 35.9561 52.8331 37.562 52.5273C39.187 52.2177 40.9129 51.7306 41.557 51.4004C41.8842 51.2332 42.2041 51.0953 42.2674 51.0953C42.5305 51.0953 45.4172 49.7077 45.8144 49.3908C46.0502 49.2021 46.3826 48.9759 46.5514 48.8889C47.7187 48.2868 50.6761 45.6669 51.895 44.1562C52.2222 43.7508 52.5502 43.3639 52.6246 43.2961C52.8302 43.109 54.2179 40.9003 54.4574 40.3793C54.5739 40.1258 54.7249 39.9187 54.7935 39.9187C54.862 39.9187 54.8863 39.8678 54.848 39.8059C54.8104 39.744 54.834 39.6755 54.9011 39.6526C55.0625 39.5981 55.9918 37.3238 56.4236 35.9266C56.6123 35.3186 56.8245 34.6833 56.896 34.5138C57.5254 33.0259 57.5106 33.0259 53.8605 34.5131Z" fill="#930423"/>
<path fill-rule="evenodd" clip-rule="evenodd" d="M49.236 9.94077C49.449 10.1272 49.6952 10.1943 50.1609 10.1943C51.0224 10.1943 53.758 10.5399 54.0181 10.6814C54.1331 10.7448 54.8907 10.943 55.7014 11.1221C64.2235 13.0095 67.2834 17.7252 63.3812 22.9598C62.3693 24.3173 60.468 26.0352 58.7781 27.1185C58.308 27.4199 57.8157 27.8039 57.683 27.9726C57.1826 28.6086 52.4241 31.1983 51.7586 31.1968C51.4042 31.1968 49.4947 31.8969 49.3738 32.0723C49.3002 32.1784 45.3773 33.4895 43.9101 33.8985C43.3699 34.0488 42.8709 34.2183 42.8009 34.2743C42.5106 34.5087 35.833 35.92 33.7769 36.1808C33.4055 36.228 33.0407 36.3142 32.9662 36.3732C32.6435 36.6267 30.9632 36.6525 30.8821 36.4049C30.6397 35.6598 29.787 34.3915 29.5283 34.3915C29.4863 34.3915 29.3434 34.253 29.2107 34.0842C27.6403 32.087 23.3269 32.4312 21.556 34.6944C21.3533 34.9531 21.0828 35.2648 20.9553 35.3864C20.8278 35.508 20.6237 35.9008 20.5014 36.2582L20.2788 36.909L19.0746 36.8809C17.7496 36.8493 15.2026 36.5309 14.8821 36.357C14.7693 36.2965 14.2358 36.1565 13.6948 36.046C11.6542 35.6303 9.11686 34.7482 8.23325 34.1476C8.06228 34.0311 7.45208 33.6273 6.87799 33.25C5.9369 32.6309 5.40408 32.1747 5.40408 31.9868C5.40408 31.9492 5.267 31.7385 5.09971 31.5189C4.15272 30.2771 3.7216 28.0544 4.23674 27.0662C4.53078 26.5024 4.46298 26.1251 4.11293 26.3786C3.97659 26.4781 3.56316 27.3293 3.32365 28.0043C2.52258 30.2682 2.91464 32.7739 4.34138 34.4969C4.87568 35.1425 6.10566 36.2339 6.29874 36.2339C6.35328 36.2339 6.51909 36.3489 6.66869 36.4904C7.1234 36.9207 9.85898 38.1743 10.789 38.3792C11.0027 38.4256 11.1774 38.5111 11.1774 38.5678C11.1774 38.8177 15.5571 39.6762 18.0554 39.9157C20.5765 40.1575 20.4476 40.1243 20.6694 40.5901C22.0615 43.5084 26.551 44.8172 28.5946 42.8997C28.7767 42.7294 29.1252 42.456 29.3684 42.2932C29.8615 41.9637 30.4215 41.2224 30.7517 40.4626L30.9691 39.9629L32.7039 39.814C35.5485 39.5708 40.3918 38.8191 40.7168 38.5708C40.7846 38.5185 41.061 38.4381 41.3307 38.3917C43.137 38.0792 48.7673 36.6039 49.0599 36.3666C49.1329 36.3076 49.5883 36.1418 50.0732 35.9981C50.5574 35.8551 50.9723 35.6841 50.9944 35.6185C51.0158 35.5537 51.8906 35.1742 52.9378 34.7755C53.985 34.3775 55.3395 33.8292 55.9475 33.558C56.5555 33.2868 57.0986 33.1085 57.1554 33.1615C57.2409 33.2411 58.8437 32.499 59.2638 32.1851C59.3309 32.1342 59.9116 31.8151 60.5535 31.4761C62.0797 30.6691 63.3008 29.8983 65.1115 28.5961C65.9664 27.9807 67.8206 26.324 68.1684 25.8642C69.2599 24.4205 69.5274 24.0837 69.6365 24.0159C70.2135 23.66 71.1119 20.8404 71.1148 19.3782C71.1222 15.5018 66.7623 11.9733 60.5896 10.8605C60.3331 10.8141 60.0656 10.7315 59.9956 10.6763C59.5387 10.3174 55.2135 9.83538 51.71 9.75284L48.9464 9.68726L49.236 9.94077ZM195.783 13.5681C194.417 14.0088 193.655 15.8158 194.242 17.2204C195.162 19.421 199.109 19.2817 199.779 17.0244C200.499 14.6035 198.345 12.7412 195.783 13.5681ZM78.2404 27.697V39.5502H87.0839H95.9274V38.1986V36.8478H90.0317H84.1361V32.303V27.7589H89.0486H93.9619V26.666C93.9619 25.2953 94.4955 25.425 88.8548 25.425H84.1361V21.7402V18.0554H90.0317H95.9274V16.95V15.8445H87.0839H78.2404V27.697ZM256.952 27.6992V39.5546L259.869 39.5215L262.786 39.4883L262.818 27.6668L262.849 15.8445H259.9H256.952V27.6992ZM266.901 16.95V18.0554H270.955H275.008V28.8024V39.5502H278.017H281.026V28.8024V18.0554H285.079H289.132V16.95V15.8445H278.017H266.901V16.95ZM183.557 16.3936C183.459 16.6279 183.379 16.9271 183.379 17.0583C183.379 17.5395 182.014 20.0024 181.483 20.48C180.204 21.6311 179.837 21.8434 178.951 21.948L178.343 22.0202V23.0468V24.0741H179.817H181.291V30.2985C181.291 36.6311 181.305 36.8485 181.77 37.8073C182.55 39.4176 184.41 40.1302 186.989 39.8052C188.872 39.5686 189.948 38.9334 191.321 37.248C191.945 36.4815 191.965 36.5537 190.87 35.6797C189.845 34.8617 189.929 34.8646 188.993 35.623C188.574 35.962 188.164 36.2936 188.082 36.3599C187.782 36.6024 187.376 36.4837 187.095 36.0718L186.818 35.6657V29.8695V24.0741H188.968H191.117V22.8456V21.6171H188.968H186.818V18.7924V15.9676H185.277H183.735L183.557 16.3936ZM199.07 21.1506C198.817 21.2184 198.61 21.3164 198.61 21.3688C198.61 21.4211 198.43 21.4977 198.21 21.5383C197.991 21.5795 197.024 21.819 196.061 22.0711L194.311 22.5295V31.0398V39.5502H197.013H199.715V30.2763C199.715 25.1759 199.674 21.0091 199.623 21.0158C199.572 21.0231 199.324 21.0836 199.07 21.1506ZM127.129 21.225C126.693 21.2449 126.279 21.3068 126.208 21.3621C126.138 21.4174 125.872 21.4999 125.617 21.5464C122.396 22.1271 119.601 24.5436 118.717 27.5128C118.606 27.8842 118.464 28.358 118.399 28.5659C118.235 29.0913 118.251 32.3759 118.421 32.9088C118.887 34.3834 119.389 35.4417 119.909 36.0489C120.759 37.0423 121.596 37.8243 122.065 38.0638C122.335 38.2016 122.64 38.3991 122.744 38.503C123.698 39.4573 127.654 40.0683 130.073 39.6357C131.797 39.3269 132.307 39.0874 134.618 37.5044C135.074 37.1912 135.723 36.5692 135.723 36.4454C135.723 36.3857 135.902 36.1057 136.122 35.8242C137.532 34.0157 138.007 32.3605 137.888 29.6625C137.809 27.8709 137.308 26.2047 136.751 25.8797C136.658 25.8251 136.582 25.6836 136.582 25.565C136.582 24.4964 133.035 22.0644 130.81 21.6075C130.438 21.5316 130.023 21.4233 129.889 21.368C129.592 21.2449 128.217 21.1735 127.129 21.225ZM148.931 21.225C148.528 21.2457 148.141 21.3083 148.071 21.3643C148.001 21.4203 147.648 21.5287 147.285 21.6046C145.699 21.9392 144.3 22.7505 142.939 24.125C142.115 24.957 141.865 25.3373 140.867 27.2674C139.828 29.2785 139.972 33.1947 141.148 34.9015C141.272 35.0806 141.373 35.2611 141.373 35.3024C141.373 36.1108 144.083 38.5288 145.727 39.1869C150.889 41.254 155.931 38.6563 157.659 33.0399C157.874 32.3406 157.873 32.303 157.635 32.303C157.527 32.303 157.264 32.2234 157.052 32.1254C156.639 31.936 155.125 31.527 155.069 31.5903C155.05 31.611 154.909 31.9315 154.754 32.303C154.6 32.6744 154.412 33.0613 154.336 33.163C154.26 33.264 154.126 33.4902 154.039 33.6656C153.495 34.7563 151.916 35.9067 150.755 36.057C145.956 36.6783 143.764 26.1354 148.246 23.9923C149.957 23.1743 151.024 23.9805 151.064 26.1221C151.077 26.8126 151.389 27.2541 152.131 27.6358C152.327 27.7368 152.528 27.8753 152.576 27.9424C152.691 28.1031 154.866 28.1031 154.98 27.9431C155.028 27.8753 155.328 27.6933 155.645 27.5378C158.18 26.3012 156.893 22.965 153.457 21.8647C152.821 21.6613 152.175 21.4948 152.02 21.4948C151.866 21.4948 151.687 21.4447 151.623 21.3835C151.489 21.2567 150.011 21.1698 148.931 21.225ZM166.245 21.2022C165.975 21.2317 165.643 21.3054 165.508 21.3658C165.373 21.4262 164.862 21.5692 164.371 21.6827C163.02 21.9966 160.902 23.105 160.902 23.4986C160.902 23.5538 160.768 23.7749 160.605 23.9901C160.441 24.2053 160.269 24.5332 160.222 24.7197C160.176 24.9061 160.089 25.0889 160.029 25.1265C159.861 25.2304 159.899 25.7138 160.118 26.2393C161.207 28.8503 165.201 28.4981 165.201 25.7905C165.201 24.1309 165.86 23.3983 167.352 23.3983H168.337L168.798 23.8862C169.381 24.5045 169.501 24.9172 169.586 26.6019L169.655 27.963L168.871 28.1753C166.997 28.6838 164.944 29.4178 164.026 29.9064C161.748 31.1187 161.259 31.4658 160.856 32.1556C160.78 32.286 160.545 32.6803 160.334 33.0326C159.307 34.743 159.639 36.8677 161.178 38.4448C162.864 40.1715 167.58 40.2503 169.214 38.5789L169.623 38.161V38.8553V39.5502H172.448H175.273V32.3863C175.273 25.1176 175.211 24.0741 174.785 24.0741C174.732 24.0741 174.623 23.9164 174.544 23.7241C174.159 22.7955 172.481 21.7785 170.936 21.5375C170.653 21.4933 170.389 21.4093 170.351 21.3503C170.274 21.2339 167.038 21.1175 166.245 21.2022ZM212.185 21.2243C211.714 21.2449 211.3 21.3017 211.264 21.3511C211.229 21.4004 210.859 21.5095 210.442 21.5935C207.932 22.0976 205.267 24.0247 204.518 25.8767C204.431 26.0912 204.29 26.2938 204.205 26.3263C203.427 26.6247 202.965 30.919 203.483 33.0311C203.75 34.1181 204.755 36.0379 205.15 36.2133C205.201 36.2354 205.242 36.3209 205.242 36.4034C205.242 36.8139 207.58 38.5089 208.925 39.0741C211.566 40.184 216.612 39.8988 218.155 38.5524C218.315 38.4123 218.66 38.1883 218.922 38.0542C219.386 37.8154 220.385 36.8677 221.175 35.9155C221.53 35.4866 221.677 35.2235 222.265 33.9611C223.184 31.992 223.116 27.991 222.138 26.4103C221.99 26.1722 221.8 25.8038 221.715 25.5923C221.194 24.2982 218.403 22.2966 216.358 21.7512C215.818 21.6068 215.182 21.4373 214.946 21.3746C214.418 21.2346 213.325 21.1749 212.185 21.2243ZM236.318 21.2206C235.945 21.2383 235.531 21.3002 235.396 21.3577C235.261 21.4144 234.763 21.5552 234.291 21.6687C233.417 21.8802 231.972 22.5 231.834 22.7233C231.656 23.0107 231.527 22.8036 231.527 22.2317V21.6171H228.764H226V30.5837V39.5502H228.764H231.527V33.0399C231.527 29.4598 231.571 26.5304 231.625 26.5304C231.678 26.5304 232.046 26.2562 232.442 25.9217C233.989 24.6136 235.769 24.3298 236.377 25.2945C236.895 26.1184 236.928 26.5849 236.93 33.194L236.931 39.5502H239.682C242.077 39.5502 242.442 39.5251 242.507 39.3556C242.632 39.0307 242.588 26.7692 242.46 25.9769C242.147 24.0483 240.705 22.2634 238.983 21.6702C238.699 21.5729 238.356 21.441 238.221 21.3776C237.918 21.2361 237.206 21.1771 236.318 21.2206ZM97.6467 21.4911C97.6467 21.7807 98.5598 23.8213 99.1774 24.912C99.3432 25.2046 99.5156 25.5635 99.5613 25.7102C99.607 25.8576 99.778 26.254 99.9416 26.5916C100.104 26.9298 100.38 27.5651 100.553 28.0043C100.726 28.4435 100.931 28.8592 101.008 28.9285C101.174 29.0788 101.577 29.8202 101.577 29.9764C101.577 30.0368 101.736 30.4333 101.93 30.8571C102.124 31.2808 102.461 32.0561 102.678 32.5793C102.896 33.1033 103.12 33.5315 103.176 33.5315C103.232 33.5315 103.346 33.7386 103.429 33.9921C103.607 34.5352 105.021 37.5965 105.371 38.1986C105.43 38.3003 105.633 38.7285 105.822 39.1508L106.167 39.9187H107.474H108.781L109.13 39.1508C109.322 38.7285 109.568 38.2451 109.678 38.0763C109.788 37.9075 110.007 37.4646 110.164 37.0932C110.691 35.8499 110.877 35.4446 111.745 33.6546C112.576 31.9411 112.88 31.2838 113.393 30.0951C113.523 29.7922 113.67 29.5158 113.72 29.4804C113.811 29.4163 114.474 28.0552 114.474 27.9328C114.474 27.8967 114.723 27.3455 115.026 26.708C115.331 26.0705 115.579 25.4972 115.579 25.4345C115.579 25.3712 115.651 25.2466 115.739 25.1574C115.892 25.0019 115.995 24.7934 116.827 22.9687C117.026 22.5295 117.242 22.074 117.306 21.9568C117.67 21.2862 117.575 21.2486 115.519 21.2486H113.617L113.124 22.2759C112.853 22.8405 112.631 23.3438 112.631 23.3946C112.631 23.4676 111.682 25.4087 111.062 26.6034C110.995 26.7323 110.883 26.9755 110.812 27.1443C110.742 27.3138 110.431 27.9866 110.123 28.641C109.814 29.2947 109.561 29.8894 109.561 29.9617C109.561 30.0331 109.512 30.0921 109.452 30.0921C109.392 30.0921 109.162 30.507 108.938 31.0133C108.582 31.8262 108.333 32.1593 108.333 31.824C108.333 31.7156 107.742 30.4827 106.915 28.8643C106.69 28.4251 106.503 27.9933 106.498 27.9041C106.494 27.8149 106.02 26.781 105.446 25.6055C104.872 24.4308 104.402 23.4315 104.402 23.3858C104.402 23.3401 104.181 22.8405 103.909 22.2759L103.417 21.2486H100.532C97.741 21.2486 97.6467 21.2567 97.6467 21.4911ZM128.567 23.8914C129.188 24.0756 130.81 25.4375 130.81 25.7743C130.81 25.8487 130.914 26.1464 131.04 26.4353C131.805 28.1812 132.105 31.185 131.736 33.429C131.64 34.0142 131.508 34.5942 131.442 34.7187C131.376 34.8425 131.228 35.1594 131.113 35.4233C130.211 37.4889 128.09 37.9621 126.535 36.4425C125.65 35.5765 124.791 33.9891 124.791 33.2161C124.791 33.0746 124.751 32.9183 124.702 32.869C124.585 32.7518 124.191 30.0715 124.183 29.3375C124.177 28.7494 124.479 27.0256 124.664 26.5916C124.721 26.4567 124.86 26.1007 124.972 25.8008C125.634 24.0321 126.856 23.3836 128.567 23.8914ZM214.14 24.1478C218.147 26.1103 217.695 37.3725 213.61 37.3334C210.456 37.304 208.217 31.0546 209.719 26.4692C210.53 23.9938 212.12 23.1588 214.14 24.1478ZM169.623 32.9154V35.2471L168.695 35.861C167.508 36.6481 166.184 36.9023 166.184 36.3444C166.184 36.2936 166.114 36.1779 166.03 36.0887C165.366 35.3871 165.252 33.9545 165.8 33.2124C166.507 32.2551 168.025 31.0804 168.81 30.8836C168.988 30.8386 169.164 30.7532 169.201 30.6927C169.532 30.157 169.623 30.6323 169.623 32.9154ZM141.496 43.6035C141.496 43.6705 141.661 43.7258 141.864 43.7258C142.067 43.7258 142.233 43.6705 142.233 43.6035C142.233 43.5357 142.067 43.4804 141.864 43.4804C141.661 43.4804 141.496 43.5357 141.496 43.6035ZM246.757 43.6035C246.757 43.6705 246.923 43.7258 247.126 43.7258C247.328 43.7258 247.494 43.6705 247.494 43.6035C247.494 43.5357 247.328 43.4804 247.126 43.4804C246.923 43.4804 246.757 43.5357 246.757 43.6035Z" fill="#FCFCFC"/>
</svg>
